# xmcd
#
# Track frame offsets:
#	150
#	19820
#	34920
#	51317
#	65210
#	83895
#	98385
#	112645
#	129480
#	149005
#	164035
#	180407
#	194262
#	212887
#	227434
#	241675
#
# Disc length: 3446 seconds
#
# Revision: 1
# Processed by: cddbd v1.5.1PL2 Copyright (c) Steve Scherf et al.
# Submitted via: audiograbber 1.83.01
#
DISCID=d90d7410
DTITLE=Various Artist - Sc2122
DYEAR=1900
DGENRE=Country
TTITLE0=Twain, Shania - Home Ain't Where His Heart Is
TTITLE1=White, Lari - Ready Willing And Able
TTITLE2=Loveless, Patty - You Can Feel Bad
TTITLE3=Rimes, LeAann - Hurt Me
TTITLE4=McBride, Martina - Wild Angels
TTITLE5=Tillis, Pam - Mi Vida Loca
TTITLE6=Messina, Jo Dee - You're Not In Kansas Anymore
TTITLE7=Morgan, Lorrie - I Didn't Know My Own Strength
TTITLE8=Twain, Shania - Home Ain't Where His Heart Is (Vocals)
TTITLE9=White, Lari - Ready Willing And Able (Vocals)
TTITLE10=Loveless, Patty - You Can Feel Bad (Vocals)
TTITLE11=Rimes, LeAnn - Hurt Me (Vocals)
TTITLE12=McBride, Martina - Wild Angels (Vocals)
TTITLE13=Tillis, Pam - Mi Vida Loca (Vocals)
TTITLE14=Messina, Jo Dee - You're Not In Kansas Anymore (Vocals)
TTITLE15=Morgan, Lorrie - I Didn't Know My Own Strength (Vocals)
EXTD=
EXTT0=
EXTT1=
EXTT2=
EXTT3=
EXTT4=
EXTT5=
EXTT6=
EXTT7=
EXTT8=
EXTT9=
EXTT10=
EXTT11=
EXTT12=
EXTT13=
EXTT14=
EXTT15=
PLAYORDER=
